<svg xmlns="http://www.w3.org/2000/svg" viewBox="0 0 864.87 63.44"><defs><style>.cls-1{fill:#27354c;}</style></defs><g id="Layer_2" data-name="Layer 2"><g id="Layer_1-2" data-name="Layer 1"><path class="cls-1" d="M11.2,53.84H29.6v8.88H0V6.88H11.2Z"></path><path class="cls-1" d="M77.6,43.92H45.2a11,11,0,0,0,3.36,7.52,10.37,10.37,0,0,0,7.28,2.72,9.15,9.15,0,0,0,8.88-5.36H76.8a20.17,20.17,0,0,1-7.36,10.52,21.47,21.47,0,0,1-13.36,4.12A23.15,23.15,0,0,1,44.6,60.6a19.91,19.91,0,0,1-7.92-8,24.69,24.69,0,0,1-2.84-12,25.06,25.06,0,0,1,2.8-12.08,19.56,19.56,0,0,1,7.84-8,23.46,23.46,0,0,1,11.6-2.8A23.34,23.34,0,0,1,67.4,20.4a19.16,19.16,0,0,1,7.76,7.72A23.35,23.35,0,0,1,77.92,39.6,26.81,26.81,0,0,1,77.6,43.92ZM66.32,36.4a8.86,8.86,0,0,0-3.12-6.92,11.08,11.08,0,0,0-7.44-2.6,10.17,10.17,0,0,0-7,2.52,11.1,11.1,0,0,0-3.48,7Z"></path><path class="cls-1" d="M99.12,27.6V49a4.25,4.25,0,0,0,1.08,3.24,5.28,5.28,0,0,0,3.64,1H109v9.44h-7Q87.84,62.72,87.84,49V27.6H82.56V18.4h5.28v-11H99.12v11H109v9.2Z"></path><path class="cls-1" d="M119.36,6.88h11.76L122.48,27H114.8Z"></path><path class="cls-1" d="M146.32,61.48a17.28,17.28,0,0,1-6.84-5.32,13.48,13.48,0,0,1-2.76-7.44H148A6.11,6.11,0,0,0,150.52,53,8.75,8.75,0,0,0,156,54.64a8.54,8.54,0,0,0,5-1.28,3.87,3.87,0,0,0,1.8-3.28,3.47,3.47,0,0,0-2.2-3.24,41.2,41.2,0,0,0-7-2.36A59.35,59.35,0,0,1,145.48,42,14,14,0,0,1,140,38.08,10.52,10.52,0,0,1,137.76,31a11.46,11.46,0,0,1,2.12-6.72,14.16,14.16,0,0,1,6.08-4.8,22.83,22.83,0,0,1,9.32-1.76q7.92,0,12.64,4a14.7,14.7,0,0,1,5.2,10.68H162.4a5.83,5.83,0,0,0-2.2-4.2,9.92,9.92,0,0,0-9.92-.44,3.56,3.56,0,0,0-1.64,3.12,3.66,3.66,0,0,0,2.24,3.4,34.85,34.85,0,0,0,7,2.36A59.57,59.57,0,0,1,165.76,39a13.93,13.93,0,0,1,5.4,4,10.92,10.92,0,0,1,2.36,7.08A11.77,11.77,0,0,1,171.4,57a14,14,0,0,1-6.08,4.76,23,23,0,0,1-9.24,1.72A23.31,23.31,0,0,1,146.32,61.48Z"></path><path class="cls-1" d="M202.76,20A26.52,26.52,0,0,1,212.92,9.8a28.77,28.77,0,0,1,14.44-3.64,28.42,28.42,0,0,1,16.4,4.8,25.14,25.14,0,0,1,9.84,13.28H240.72a13.31,13.31,0,0,0-5.4-6,15.88,15.88,0,0,0-8-2,16.52,16.52,0,0,0-8.68,2.28A15.51,15.51,0,0,0,212.68,25a21.15,21.15,0,0,0-2.12,9.76,21.21,21.21,0,0,0,2.12,9.72,15.44,15.44,0,0,0,5.92,6.48,16.52,16.52,0,0,0,8.68,2.28,15.6,15.6,0,0,0,8-2,13.57,13.57,0,0,0,5.4-6H253.6a25,25,0,0,1-9.8,13.32,30.63,30.63,0,0,1-30.88,1.12,26.62,26.62,0,0,1-10.16-10.12A29,29,0,0,1,199,34.72,29.27,29.27,0,0,1,202.76,20Z"></path><path class="cls-1" d="M271.36,60.6a20.32,20.32,0,0,1-8-8,24.07,24.07,0,0,1-2.92-12,23.6,23.6,0,0,1,3-12,20.78,20.78,0,0,1,8.2-8,25.11,25.11,0,0,1,23.2,0,20.85,20.85,0,0,1,8.2,8,23.6,23.6,0,0,1,3,12,23.15,23.15,0,0,1-3.08,12,21.35,21.35,0,0,1-8.32,8,24.25,24.25,0,0,1-11.72,2.84A23.36,23.36,0,0,1,271.36,60.6Zm17.24-8.4a10.86,10.86,0,0,0,4.28-4.44,15,15,0,0,0,1.6-7.2q0-6.31-3.32-9.72a10.91,10.91,0,0,0-8.12-3.4,10.64,10.64,0,0,0-8,3.4q-3.24,3.4-3.24,9.72t3.16,9.72a10.38,10.38,0,0,0,8,3.4A11.64,11.64,0,0,0,288.6,52.2Z"></path><path class="cls-1" d="M351.59,22.76q4.89,5,4.88,14v26h-11.2V38.24q0-5.28-2.64-8.12a9.35,9.35,0,0,0-7.2-2.84,9.6,9.6,0,0,0-7.32,2.84c-1.78,1.89-2.68,4.6-2.68,8.12V62.72h-11.2V18.4h11.2v5.52a15.49,15.49,0,0,1,5.72-4.52,17.75,17.75,0,0,1,7.64-1.64Q346.71,17.76,351.59,22.76Z"></path><path class="cls-1" d="M404.47,22.76q4.89,5,4.88,14v26h-11.2V38.24q0-5.28-2.64-8.12a9.36,9.36,0,0,0-7.2-2.84A9.6,9.6,0,0,0,381,30.12c-1.78,1.89-2.68,4.6-2.68,8.12V62.72h-11.2V18.4h11.2v5.52A15.49,15.49,0,0,1,384,19.4a17.75,17.75,0,0,1,7.64-1.64Q399.59,17.76,404.47,22.76Z"></path><path class="cls-1" d="M460.87,43.92h-32.4a11,11,0,0,0,3.36,7.52,10.39,10.39,0,0,0,7.28,2.72A9.15,9.15,0,0,0,448,48.8h12.08a20.17,20.17,0,0,1-7.36,10.52,21.45,21.45,0,0,1-13.36,4.12,23.18,23.18,0,0,1-11.48-2.84,20,20,0,0,1-7.92-8,24.69,24.69,0,0,1-2.84-12,25.17,25.17,0,0,1,2.8-12.08,19.56,19.56,0,0,1,7.84-8,25.17,25.17,0,0,1,22.92-.08,19.1,19.1,0,0,1,7.76,7.72,23.35,23.35,0,0,1,2.76,11.48A25.71,25.71,0,0,1,460.87,43.92ZM449.59,36.4a8.86,8.86,0,0,0-3.12-6.92,11,11,0,0,0-7.44-2.6,10.18,10.18,0,0,0-7,2.52,11.1,11.1,0,0,0-3.48,7Z"></path><path class="cls-1" d="M469.27,28.52a20.06,20.06,0,0,1,7.76-8,22.51,22.51,0,0,1,11.36-2.84q8.25,0,13.64,4.12a20,20,0,0,1,7.24,11.56H497.19A8.82,8.82,0,0,0,494,28.84a9.43,9.43,0,0,0-5.64-1.64,9.24,9.24,0,0,0-7.6,3.48q-2.79,3.48-2.8,9.88t2.8,9.8a9.24,9.24,0,0,0,7.6,3.48q6.81,0,8.88-6.08h12.08A20.4,20.4,0,0,1,502,59.2q-5.43,4.24-13.6,4.24A22.51,22.51,0,0,1,477,60.6a20.06,20.06,0,0,1-7.76-8,24.93,24.93,0,0,1-2.8-12A24.93,24.93,0,0,1,469.27,28.52Z"></path><path class="cls-1" d="M530.55,27.6V49a4.25,4.25,0,0,0,1.08,3.24,5.28,5.28,0,0,0,3.64,1h5.2v9.44h-7q-14.16,0-14.16-13.76V27.6H514V18.4h5.28v-11h11.28v11h9.92v9.2Z"></path><path class="cls-1" d="M642.23,6.88l-15.6,55.84h-13.2L603,23,592,62.72l-13.12.08-15-55.92h12l9.84,43.36L597,6.88h12.48L620.23,50l9.92-43.12Z"></path><path class="cls-1" d="M650.27,11.24a6.2,6.2,0,0,1-2-4.68,6.2,6.2,0,0,1,2-4.68,7.38,7.38,0,0,1,9.84,0,6.2,6.2,0,0,1,2,4.68,6.2,6.2,0,0,1-2,4.68,7.38,7.38,0,0,1-9.84,0Zm10.44,7.16V62.72h-11.2V18.4Z"></path><path class="cls-1" d="M684.79,27.6V49a4.25,4.25,0,0,0,1.08,3.24,5.28,5.28,0,0,0,3.64,1h5.2v9.44h-7q-14.16,0-14.16-13.76V27.6h-5.28V18.4h5.28v-11h11.28v11h9.92v9.2Z"></path><path class="cls-1" d="M736.71,20a15.24,15.24,0,0,1,6.12,6.48A22.32,22.32,0,0,1,745,36.72v26h-11.2V38.24q0-5.28-2.64-8.12a9.36,9.36,0,0,0-7.2-2.84,9.59,9.59,0,0,0-7.32,2.84Q714,33,714,38.24V62.72h-11.2V3.52H714v20.4a14.57,14.57,0,0,1,5.76-4.52,19.1,19.1,0,0,1,8-1.64A18,18,0,0,1,736.71,20Z"></path><path class="cls-1" d="M785.75,6.88V41.44c0,3.79,1,6.68,3,8.68s4.74,3,8.32,3,6.42-1,8.4-3,3-4.89,3-8.68V6.88h11.28V41.36a22.28,22.28,0,0,1-3.08,12,19.55,19.55,0,0,1-8.24,7.4,26.21,26.21,0,0,1-11.48,2.48,25.48,25.48,0,0,1-11.32-2.48,18.82,18.82,0,0,1-8-7.4,22.89,22.89,0,0,1-3-12V6.88Z"></path><path class="cls-1" d="M837.67,61.48a17.28,17.28,0,0,1-6.84-5.32,13.48,13.48,0,0,1-2.76-7.44h11.28A6.11,6.11,0,0,0,841.87,53a8.75,8.75,0,0,0,5.48,1.68,8.54,8.54,0,0,0,5-1.28,3.87,3.87,0,0,0,1.8-3.28,3.47,3.47,0,0,0-2.2-3.24,41.2,41.2,0,0,0-7-2.36A59.35,59.35,0,0,1,836.83,42a14,14,0,0,1-5.44-3.92A10.52,10.52,0,0,1,829.11,31a11.46,11.46,0,0,1,2.12-6.72,14.16,14.16,0,0,1,6.08-4.8,22.83,22.83,0,0,1,9.32-1.76q7.92,0,12.64,4a14.7,14.7,0,0,1,5.2,10.68H853.75a5.83,5.83,0,0,0-2.2-4.2,9.92,9.92,0,0,0-9.92-.44A3.56,3.56,0,0,0,840,30.8a3.66,3.66,0,0,0,2.24,3.4,34.85,34.85,0,0,0,7,2.36A59.57,59.57,0,0,1,857.11,39a13.93,13.93,0,0,1,5.4,4,10.92,10.92,0,0,1,2.36,7.08A11.77,11.77,0,0,1,862.75,57a14,14,0,0,1-6.08,4.76,23,23,0,0,1-9.24,1.72A23.31,23.31,0,0,1,837.67,61.48Z"></path></g></g></svg>